<svg width="32" height="32" viewBox="0 0 32 32" fill="none" xmlns="http://www.w3.org/2000/svg">
<rect width="32" height="32" fill="#131212"/>
<path d="M7.26465 7.13525H7.73584V12.2305H7.26465V7.13525ZM9.58887 7.96533C9.5612 7.90674 9.54248 7.86117 9.53271 7.82861C9.52295 7.79606 9.51807 7.76514 9.51807 7.73584C9.51807 7.66585 9.54655 7.60726 9.60352 7.56006C9.66211 7.51286 9.72884 7.48926 9.80371 7.48926C9.85254 7.48926 9.89567 7.50798 9.93311 7.54541C9.97217 7.58285 10.0137 7.6512 10.0576 7.75049L11.4883 10.8096C11.516 10.8682 11.5347 10.9146 11.5444 10.9487C11.5542 10.9813 11.5591 11.0114 11.5591 11.0391C11.5591 11.1074 11.529 11.1652 11.4688 11.2124C11.4085 11.2612 11.3418 11.2856 11.2686 11.2856C11.2197 11.2856 11.1766 11.2677 11.1392 11.2319C11.1034 11.1961 11.0627 11.1286 11.0171 11.0293L9.58887 7.96533ZM12.4868 9.59619H14.5107C14.5498 9.59619 14.5791 9.60596 14.5986 9.62549C14.6198 9.64502 14.6304 9.6735 14.6304 9.71094V10.0161C14.6304 10.0503 14.6174 10.0812 14.5913 10.1089C14.5669 10.1366 14.54 10.1504 14.5107 10.1504H12.4868C12.4543 10.1504 12.4282 10.1382 12.4087 10.1138C12.3908 10.0894 12.3818 10.0568 12.3818 10.0161V9.71094C12.3818 9.67676 12.3916 9.64909 12.4111 9.62793C12.4307 9.60677 12.4559 9.59619 12.4868 9.59619ZM15.4897 9.59619H17.5137C17.5527 9.59619 17.582 9.60596 17.6016 9.62549C17.6227 9.64502 17.6333 9.6735 17.6333 9.71094V10.0161C17.6333 10.0503 17.6203 10.0812 17.5942 10.1089C17.5698 10.1366 17.543 10.1504 17.5137 10.1504H15.4897C15.4572 10.1504 15.4312 10.1382 15.4116 10.1138C15.3937 10.0894 15.3848 10.0568 15.3848 10.0161V9.71094C15.3848 9.67676 15.3945 9.64909 15.4141 9.62793C15.4336 9.60677 15.4588 9.59619 15.4897 9.59619ZM18.4927 9.59619H20.5166C20.5557 9.59619 20.585 9.60596 20.6045 9.62549C20.6257 9.64502 20.6362 9.6735 20.6362 9.71094V10.0161C20.6362 10.0503 20.6232 10.0812 20.5972 10.1089C20.5728 10.1366 20.5459 10.1504 20.5166 10.1504H18.4927C18.4601 10.1504 18.4341 10.1382 18.4146 10.1138C18.3966 10.0894 18.3877 10.0568 18.3877 10.0161V9.71094C18.3877 9.67676 18.3975 9.64909 18.417 9.62793C18.4365 9.60677 18.4618 9.59619 18.4927 9.59619ZM23.5 7.96533L22.0693 11.0293C22.0254 11.1253 21.9847 11.1921 21.9473 11.2295C21.9098 11.2669 21.8659 11.2856 21.8154 11.2856C21.7406 11.2856 21.6738 11.262 21.6152 11.2148C21.5583 11.1676 21.5298 11.109 21.5298 11.0391C21.5298 10.9919 21.5518 10.9186 21.5957 10.8193L21.6006 10.8096L23.0288 7.75049C23.0744 7.6512 23.1159 7.58285 23.1533 7.54541C23.1908 7.50798 23.2347 7.48926 23.2852 7.48926C23.3584 7.48926 23.4243 7.51286 23.4829 7.56006C23.5415 7.60726 23.5708 7.66585 23.5708 7.73584C23.5708 7.76514 23.5659 7.79606 23.5562 7.82861C23.5464 7.86117 23.5277 7.90674 23.5 7.96533ZM25.2822 7.13525H25.7534V12.2305H25.2822V7.13525ZM7.26465 13.1353H7.73584V18.2305H7.26465V13.1353ZM13.5049 15.2056C13.3145 15.2056 13.1574 15.2682 13.0337 15.3936C12.9116 15.5173 12.8506 15.6759 12.8506 15.8696C12.8506 16.0649 12.9116 16.2269 13.0337 16.3555C13.1574 16.4824 13.3145 16.5459 13.5049 16.5459C13.6953 16.5459 13.8524 16.4824 13.9761 16.3555C14.0998 16.2269 14.1616 16.0649 14.1616 15.8696C14.1616 15.6759 14.0998 15.5173 13.9761 15.3936C13.854 15.2682 13.6969 15.2056 13.5049 15.2056ZM13.5049 14.6904C13.9004 14.6904 14.221 14.8011 14.4668 15.0225C14.7126 15.2438 14.8354 15.5278 14.8354 15.8745C14.8354 16.2228 14.7126 16.5076 14.4668 16.729C14.221 16.9504 13.9004 17.061 13.5049 17.061C13.111 17.061 12.7912 16.9504 12.5454 16.729C12.2996 16.5076 12.1768 16.2228 12.1768 15.8745C12.1768 15.5278 12.2996 15.2438 12.5454 15.0225C12.7928 14.8011 13.1126 14.6904 13.5049 14.6904ZM14.9648 17.7202H18.0532V18.1792H14.9648V17.7202ZM19.5107 15.2056C19.3203 15.2056 19.1632 15.2682 19.0396 15.3936C18.9175 15.5173 18.8564 15.6759 18.8564 15.8696C18.8564 16.0649 18.9175 16.2269 19.0396 16.3555C19.1632 16.4824 19.3203 16.5459 19.5107 16.5459C19.7012 16.5459 19.8582 16.4824 19.9819 16.3555C20.1056 16.2269 20.1675 16.0649 20.1675 15.8696C20.1675 15.6759 20.1056 15.5173 19.9819 15.3936C19.8599 15.2682 19.7028 15.2056 19.5107 15.2056ZM19.5107 14.6904C19.9062 14.6904 20.2269 14.8011 20.4727 15.0225C20.7184 15.2438 20.8413 15.5278 20.8413 15.8745C20.8413 16.2228 20.7184 16.5076 20.4727 16.729C20.2269 16.9504 19.9062 17.061 19.5107 17.061C19.1169 17.061 18.797 16.9504 18.5513 16.729C18.3055 16.5076 18.1826 16.2228 18.1826 15.8745C18.1826 15.5278 18.3055 15.2438 18.5513 15.0225C18.7987 14.8011 19.1185 14.6904 19.5107 14.6904ZM25.2822 13.1353H25.7534V18.2305H25.2822V13.1353ZM9.58887 19.9653C9.5612 19.9067 9.54248 19.8612 9.53271 19.8286C9.52295 19.7961 9.51807 19.7651 9.51807 19.7358C9.51807 19.6659 9.54655 19.6073 9.60352 19.5601C9.66211 19.5129 9.72884 19.4893 9.80371 19.4893C9.85254 19.4893 9.89567 19.508 9.93311 19.5454C9.97217 19.5828 10.0137 19.6512 10.0576 19.7505L11.4883 22.8096C11.516 22.8682 11.5347 22.9146 11.5444 22.9487C11.5542 22.9813 11.5591 23.0114 11.5591 23.0391C11.5591 23.1074 11.529 23.1652 11.4688 23.2124C11.4085 23.2612 11.3418 23.2856 11.2686 23.2856C11.2197 23.2856 11.1766 23.2677 11.1392 23.2319C11.1034 23.1961 11.0627 23.1286 11.0171 23.0293L9.58887 19.9653ZM11.9619 23.7202H15.0503V24.1792H11.9619V23.7202ZM16.5078 20.2241L15.7583 20.8442C15.7453 20.8556 15.7298 20.8646 15.7119 20.8711C15.6956 20.8776 15.6794 20.8809 15.6631 20.8809C15.624 20.8809 15.5907 20.8687 15.563 20.8442C15.5369 20.8182 15.5239 20.7865 15.5239 20.749C15.5239 20.7279 15.5296 20.7043 15.541 20.6782C15.5524 20.6522 15.5687 20.6278 15.5898 20.605L16.3394 19.7261C16.3573 19.7017 16.3809 19.6829 16.4102 19.6699C16.4411 19.6569 16.4736 19.6504 16.5078 19.6504C16.5436 19.6504 16.5762 19.6569 16.6055 19.6699C16.6348 19.6829 16.6592 19.7017 16.6787 19.7261L17.4331 20.605C17.4526 20.6261 17.4673 20.6506 17.4771 20.6782C17.4884 20.7043 17.4941 20.7295 17.4941 20.7539C17.4941 20.7913 17.4803 20.8231 17.4526 20.8491C17.4266 20.8735 17.3957 20.8857 17.3599 20.8857C17.3452 20.8857 17.3314 20.8841 17.3184 20.8809C17.307 20.876 17.2956 20.8687 17.2842 20.8589L16.5078 20.2241ZM17.9678 23.7202H21.0562V24.1792H17.9678V23.7202ZM23.5 19.9653L22.0693 23.0293C22.0254 23.1253 21.9847 23.1921 21.9473 23.2295C21.9098 23.2669 21.8659 23.2856 21.8154 23.2856C21.7406 23.2856 21.6738 23.262 21.6152 23.2148C21.5583 23.1676 21.5298 23.109 21.5298 23.0391C21.5298 22.9919 21.5518 22.9186 21.5957 22.8193L21.6006 22.8096L23.0288 19.7505C23.0744 19.6512 23.1159 19.5828 23.1533 19.5454C23.1908 19.508 23.2347 19.4893 23.2852 19.4893C23.3584 19.4893 23.4243 19.5129 23.4829 19.5601C23.5415 19.6073 23.5708 19.6659 23.5708 19.7358C23.5708 19.7651 23.5659 19.7961 23.5562 19.8286C23.5464 19.8612 23.5277 19.9067 23.5 19.9653Z" fill="#00FF7B"/>
</svg>
